<?xml version="1.0" encoding="UTF-8" standalone="no"?>
<!-- Created with Inkscape (http://www.inkscape.org/) -->

<svg
   xmlns:dc="http://purl.org/dc/elements/1.1/"
   xmlns:cc="http://creativecommons.org/ns#"
   xmlns:rdf="http://www.w3.org/1999/02/22-rdf-syntax-ns#"
   xmlns:svg="http://www.w3.org/2000/svg"
   xmlns="http://www.w3.org/2000/svg"
   xmlns:sodipodi="http://sodipodi.sourceforge.net/DTD/sodipodi-0.dtd"
   xmlns:inkscape="http://www.inkscape.org/namespaces/inkscape"
   width="60"
   height="60"
   viewBox="0 0 60 60"
   id="svg10394"
   version="1.1"
   inkscape:version="0.91 r13725"
   sodipodi:docname="logo.svg"
   inkscape:export-filename="C:\xampp\htdocs\DTM_site\img\logo\logo.png"
   inkscape:export-xdpi="150"
   inkscape:export-ydpi="150"
   style="shape-rendering:crispEdges">
  <defs
     id="defs10396" />
  <sodipodi:namedview
     id="base"
     pagecolor="#ffffff"
     bordercolor="#666666"
     borderopacity="1.0"
     inkscape:pageopacity="0"
     inkscape:pageshadow="2"
     inkscape:zoom="6.026087"
     inkscape:cx="10.716942"
     inkscape:cy="23.497715"
     inkscape:document-units="px"
     inkscape:current-layer="layer1"
     showgrid="true"
     fit-margin-top="10"
     fit-margin-left="10"
     fit-margin-right="10"
     fit-margin-bottom="10"
     units="px"
     inkscape:window-width="1920"
     inkscape:window-height="1017"
     inkscape:window-x="1272"
     inkscape:window-y="-8"
     inkscape:window-maximized="1">
    <inkscape:grid
       type="xygrid"
       id="grid10960"
       originx="-276.1836"
       originy="-560.45094" />
  </sodipodi:namedview>
  <metadata
     id="metadata10399">
    <rdf:RDF>
      <cc:Work
         rdf:about="">
        <dc:format>image/svg+xml</dc:format>
        <dc:type
           rdf:resource="http://purl.org/dc/dcmitype/StillImage" />
        <dc:title></dc:title>
      </cc:Work>
    </rdf:RDF>
  </metadata>
  <g
     inkscape:label="Layer 1"
     inkscape:groupmode="layer"
     id="layer1"
     transform="translate(-138.0918,-712.13672)">
    <rect
       style="opacity:1;fill:#4dd1bf;fill-opacity:1;stroke:none;stroke-width:2;stroke-linecap:round;stroke-linejoin:round;stroke-miterlimit:4;stroke-dasharray:none;stroke-opacity:1"
       id="rect4135"
       width="30.084028"
       height="44.819061"
       x="153.33961"
       y="719.34741"
       rx="2.2745981"
       ry="2.2745981" />
    <path
       style="opacity:0.98999999;fill:#fffdfd;fill-opacity:1;stroke:none;stroke-width:0.99800402;stroke-linecap:butt;stroke-linejoin:miter;stroke-miterlimit:4;stroke-dasharray:none;stroke-opacity:1"
       d="m 168.09168,714.63672 a 27.499993,27.499993 0 0 0 -27.49988,27.50012 27.499993,27.499993 0 0 0 27.49988,27.49988 27.499993,27.499993 0 0 0 27.50012,-27.49988 27.499993,27.499993 0 0 0 -27.50012,-27.50012 z m 1.9582,5.99307 5.42251,0 c 0.1669,0 0.30146,0.13432 0.30146,0.30122 l 0,4.21761 4.5282,0 c 0.89439,0 1.49676,0.60246 1.49676,1.50541 l 0,31.3436 c 0,0.89157 -0.60257,1.49413 -1.49772,1.49413 l -5.12993,0 -1.20489,1.20489 -17.47723,0 -1.1977,-1.20489 c -0.90304,0 -0.90679,-0.6026 -0.90679,-1.50636 l 0,-31.32994 c 0,-0.9151 0.58117,-1.50684 1.51739,-1.50684 l 1.19387,0 0,-1.80758 c 0,-0.1669 0.13456,-0.30122 0.30146,-0.30122 l 3.61493,0 c 0.16689,0 0.30122,0.13432 0.30122,0.30122 l 0,1.80758 8.43523,0 0,-4.21761 c 0,-0.1669 0.13433,-0.30122 0.30123,-0.30122 z m 9.88331,12.41973 c -0.16612,0 -0.29978,0.13366 -0.29978,0.29978 l 0,12.01875 c -0.002,0.0144 -0.004,0.0291 -0.004,0.0441 l 0,13.10013 c 0,0.16689 0.13433,0.30122 0.30122,0.30122 l 0.90391,0 c 0.1669,0 0.30123,-0.13433 0.30123,-0.30122 l 0,-13.10013 c 0,-0.015 -0.002,-0.0297 -0.004,-0.0441 l 0,-12.01875 c 0,-0.16612 -0.13367,-0.29978 -0.29979,-0.29978 l -0.89959,0 z m -24.58453,4.9889 c -0.1669,0 -0.30122,0.13433 -0.30122,0.30123 l 0,8.65491 c -0.002,0.0151 -0.004,0.0303 -0.004,0.0461 l 0,11.47409 c 0,0.16776 0.13491,0.30266 0.30267,0.30266 l 0.90847,0 c 0.16775,0 0.3029,-0.1349 0.3029,-0.30266 l 0,-11.47409 c 0,-0.0159 -0.002,-0.0313 -0.004,-0.0465 l 0,-8.65443 c 0,-0.1669 -0.13432,-0.30123 -0.30122,-0.30123 l -0.90368,0 z m 7.1097,2.47431 c -0.1669,0 -0.30146,0.13432 -0.30146,0.30122 l 0,18.07536 c 0,0.1669 0.13456,0.30122 0.30146,0.30122 l 3.61493,0 c 0.1669,0 0.30122,-0.13432 0.30122,-0.30122 l 0,-18.07536 c 0,-0.1669 -0.13432,-0.30122 -0.30122,-0.30122 l -3.61493,0 z"
       id="path10962"
       inkscape:connector-curvature="0"
       inkscape:export-xdpi="11.540628"
       inkscape:export-ydpi="11.540628" />
  </g>
</svg>
